/vscmnt/brussel_pixiu_data/_data_brussel/112/vsc11236/PredSimResults/SUBJ04opt3D/expIG/worker_14.mot
version=1
nRows=4
nColumns=50
inDegrees=yes
endheader
                time	         pelvis_tilt	         pelvis_list	     pelvis_rotation	           pelvis_tx	           pelvis_ty	           pelvis_tz	       hip_flexion_r	     hip_adduction_r	      hip_rotation_r	        knee_angle_r	       ankle_angle_r	         mtp_angle_r	       hip_flexion_l	     hip_adduction_l	      hip_rotation_l	        knee_angle_l	       ankle_angle_l	         mtp_angle_l	    lumbar_extension	      lumbar_bending	     lumbar_rotation	 ercspn_r/activation	 intobl_r/activation	 extobl_r/activation	    abd_r/activation	    add_r/activation	hamstrings_r/activation	bifemsh_r/activation	glut_max_r/activation	iliopsoas_r/activation	rect_fem_r/activation	  vasti_r/activation	gastroc_r/activation	 soleus_r/activation	tib_ant_r/activation	 ercspn_l/activation	 intobl_l/activation	 extobl_l/activation	    abd_l/activation	    add_l/activation	hamstrings_l/activation	bifemsh_l/activation	glut_max_l/activation	iliopsoas_l/activation	rect_fem_l/activation	  vasti_l/activation	gastroc_l/activation	 soleus_l/activation	tib_ant_l/activation	
          1.15866620	         -5.77623656	          1.37587570	         -5.19888061	          2.20146578	          0.87613301	          0.00302522	        -15.31695182	         -0.60061848	         -4.27266667	        -14.67038351	         -2.42854693	         39.00631841	         36.17366575	          0.40668648	         -5.66502554	        -23.58176861	         10.96619957	          0.43925340	        -12.69966456	         -2.78838223	         12.85496577	          0.11182494	          0.01000004	          0.01000000	          0.01508819	          0.22499322	          0.04458744	          0.19574814	          0.01128742	          0.68944108	          0.01000019	          0.01632440	          0.20860658	          0.12719722	          0.01000000	          0.13225663	          0.09586053	          0.02634829	          0.01000000	          0.37105143	          0.40990004	          0.04055171	          0.01000000	          0.22493132	          0.01614495	          0.11400683	          0.01128740	          0.01128740	          0.51267078	
          1.16639064	         -5.74924547	          1.58565387	         -4.97956792	          2.21845075	          0.87345784	          0.00257646	        -15.06943164	         -0.96707206	         -4.68456385	        -17.17190699	         -2.92436728	         39.63548396	         35.76667229	          1.05333741	         -5.03248823	        -23.78860729	         10.56354288	          0.43194628	        -12.38262418	         -3.27247424	         12.88923784	          0.09907054	          0.01000001	          0.01000000	          0.01336729	          0.29830369	          0.03950250	          0.17342175	          0.01000002	          0.61080558	          0.01000003	          0.01446249	          0.18481356	          0.11268952	          0.01000001	          0.11717185	          0.08492698	          0.02334310	          0.01000000	          0.37631671	          0.36314812	          0.03592652	          0.01000005	          0.19927634	          0.01430351	          0.20063232	          0.01000000	          0.01000000	          0.50257296	
          1.17411508	         -5.71361911	          1.78987590	         -4.75070854	          2.23551901	          0.87065404	          0.00208905	        -14.60797456	         -1.35619424	         -5.09037239	        -20.08546474	         -3.43651199	         39.95285214	         35.31036587	          1.66902852	         -4.36579239	        -24.73430920	         10.21012931	          0.36707327	        -12.06459598	         -3.74346730	         12.88210079	          0.08777087	          0.01438087	          0.01274048	          0.01274058	          0.37774177	          0.07958463	          0.15364183	          0.01438081	          0.54113898	          0.01000000	          0.01281294	          0.16373430	          0.09983650	          0.01000000	          0.10380759	          0.07524047	          0.02068067	          0.01293039	          0.35830024	          0.32172856	          0.03182888	          0.01000056	          0.17654750	          0.01267210	          0.29644376	          0.01733684	          0.02526672	          0.51492133	
          1.18183952	         -5.67536458	          2.03183722	         -4.51838931	          2.25263942	          0.86782101	          0.00158303	        -13.93041720	         -1.81621923	         -5.50230941	        -23.36944813	         -4.03161084	         39.90707072	         34.67040378	          2.29753957	         -3.72705457	        -25.62778062	         10.30576713	          0.33394837	        -11.74224150	         -4.25122005	         12.82771082	          0.07776001	          0.01274064	          0.01128737	          0.01128743	          0.33465772	          0.07050752	          0.15309857	          0.01274058	          0.47941840	          0.01000000	          0.01135154	          0.14505927	          0.08844946	          0.01541575	          0.09196762	          0.07290369	          0.01832190	          0.12284996	          0.31743366	          0.28503320	          0.02819980	          0.04551395	          0.15641103	          0.01122676	          0.32092900	          0.01535945	          0.02238488	          0.59674804	
